<svg width="22" height="22" viewBox="0 0 22 22" fill="none" xmlns="http://www.w3.org/2000/svg">
<path d="M3.51336 3.66671H7.62919L8.95561 6.98321L6.82436 8.40404C6.69885 8.48778 6.59596 8.6012 6.5248 8.73424C6.45364 8.86728 6.41642 9.01583 6.41644 9.16671C6.41919 9.25287 6.41644 9.16762 6.41644 9.16762V9.18687C6.41699 9.22787 6.41882 9.26883 6.42194 9.30971C6.42744 9.38487 6.43661 9.48662 6.45403 9.61221C6.48978 9.85971 6.55853 10.2007 6.69236 10.6022C6.96186 11.4089 7.48986 12.453 8.51836 13.4815C9.54686 14.51 10.5909 15.038 11.3967 15.3075C11.7991 15.4413 12.1392 15.5091 12.3885 15.5458C12.5293 15.5654 12.6709 15.5777 12.8129 15.5825L12.8249 15.5834H12.8322C12.8322 15.5834 12.9349 15.5779 12.8331 15.5834C13.0033 15.5833 13.1701 15.5358 13.3148 15.4463C13.4596 15.3568 13.5765 15.2287 13.6526 15.0765L14.2668 13.8481L18.3331 14.5265V18.4865C16.398 18.766 11.1712 19.042 7.06453 14.9353C2.95786 10.8286 3.23286 5.60087 3.51336 3.66671ZM8.31669 9.61221L9.97311 8.50854C10.323 8.27513 10.5821 7.92849 10.7067 7.52676C10.8314 7.12503 10.8142 6.69264 10.6579 6.30212L9.33144 2.98562C9.19533 2.64545 8.96041 2.35387 8.657 2.14849C8.35358 1.94311 7.99558 1.83335 7.62919 1.83337H3.46569C2.63244 1.83337 1.84869 2.41179 1.71211 3.31562C1.40044 5.37079 0.977861 11.441 5.76836 16.2315C10.5589 21.022 16.629 20.5985 18.6842 20.2877C19.588 20.1502 20.1664 19.3674 20.1664 18.5341V14.5265C20.1665 14.0925 20.0126 13.6725 19.7321 13.3414C19.4516 13.0102 19.0628 12.7893 18.6347 12.7179L14.5684 12.0405C14.1816 11.9759 13.7844 12.037 13.4349 12.2149C13.0855 12.3927 12.8023 12.6779 12.6269 13.0286L12.3097 13.6639C12.1975 13.6363 12.0865 13.6041 11.9769 13.5676C11.4086 13.3788 10.6194 12.9901 9.81453 12.1853C9.00969 11.3805 8.62103 10.5912 8.43219 10.022C8.3871 9.8874 8.34886 9.75064 8.31761 9.61221H8.31669Z" fill="white"/>
</svg>
