<svg width="19" height="19" viewBox="0 0 19 19" fill="none" xmlns="http://www.w3.org/2000/svg">
<mask id="mask0_158_944" style="mask-type:luminance" maskUnits="userSpaceOnUse" x="3" y="1" width="13" height="17">
<path d="M9.5 16.2292C9.5 16.2292 4.75 10.6875 4.75 7.125C4.75 4.50165 6.87665 2.375 9.5 2.375C12.1233 2.375 14.25 4.50165 14.25 7.125C14.25 10.6875 9.5 16.2292 9.5 16.2292Z" fill="white" stroke="white" stroke-width="2" stroke-linecap="round"/>
<path d="M9.49967 9.10421C10.5927 9.10421 11.4788 8.2181 11.4788 7.12504C11.4788 6.03198 10.5927 5.14587 9.49967 5.14587C8.40661 5.14587 7.52051 6.03198 7.52051 7.12504C7.52051 8.2181 8.40661 9.10421 9.49967 9.10421Z" fill="black"/>
</mask>
<g mask="url(#mask0_158_944)">
<path d="M19 0H0V19H19V0Z" fill="#ffffff"/>
</g>
</svg>
