<svg width="24" height="24" viewBox="0 0 24 24" fill="none" xmlns="http://www.w3.org/2000/svg">
<g clip-path="url(#clip0_158_1457)">
<path d="M12 10C13.0297 9.99993 14.0421 10.2648 14.9397 10.7693C15.8374 11.2737 16.5901 12.0007 17.1255 12.8802C17.6609 13.7597 17.961 14.7623 17.9968 15.7913C18.0326 16.8204 17.803 17.8414 17.33 18.756L17.197 19H20C20.2549 19.0003 20.5 19.0979 20.6854 19.2728C20.8707 19.4478 20.9822 19.687 20.9972 19.9414C21.0121 20.1958 20.9293 20.4464 20.7657 20.6418C20.6021 20.8373 20.3701 20.9629 20.117 20.993L20 21H4C3.74512 20.9997 3.49997 20.9021 3.31463 20.7271C3.1293 20.5522 3.01776 20.313 3.00283 20.0586C2.98789 19.8042 3.07067 19.5536 3.23426 19.3582C3.39785 19.1627 3.6299 19.0371 3.883 19.007L4 19H6.803C6.27635 18.0878 5.99911 17.0531 5.99915 15.9998C5.99919 14.9465 6.2765 13.9118 6.80321 12.9996C7.32992 12.0875 8.08747 11.3301 8.9997 10.8035C9.91193 10.277 10.9467 9.99985 12 10ZM21 15C21.2652 15 21.5196 15.1054 21.7071 15.2929C21.8946 15.4804 22 15.7348 22 16C22 16.2652 21.8946 16.5196 21.7071 16.7071C21.5196 16.8946 21.2652 17 21 17H20C19.7348 17 19.4804 16.8946 19.2929 16.7071C19.1054 16.5196 19 16.2652 19 16C19 15.7348 19.1054 15.4804 19.2929 15.2929C19.4804 15.1054 19.7348 15 20 15H21ZM4 15C4.26522 15 4.51957 15.1054 4.70711 15.2929C4.89464 15.4804 5 15.7348 5 16C5 16.2652 4.89464 16.5196 4.70711 16.7071C4.51957 16.8946 4.26522 17 4 17H3C2.73478 17 2.48043 16.8946 2.29289 16.7071C2.10536 16.5196 2 16.2652 2 16C2 15.7348 2.10536 15.4804 2.29289 15.2929C2.48043 15.1054 2.73478 15 3 15H4ZM4.929 8.929C5.10119 8.75682 5.33029 8.65339 5.57332 8.63811C5.81634 8.62283 6.0566 8.69675 6.249 8.846L6.343 8.929L7.05 9.636C7.22935 9.81596 7.33347 10.0574 7.34123 10.3114C7.34898 10.5653 7.25978 10.8127 7.09175 11.0033C6.92372 11.1938 6.68945 11.3133 6.43652 11.3374C6.1836 11.3615 5.93099 11.2884 5.73 11.133L5.636 11.05L4.929 10.343C4.74153 10.1555 4.63621 9.90116 4.63621 9.636C4.63621 9.37083 4.74153 9.11653 4.929 8.929ZM19.071 8.929C19.2585 9.11653 19.3638 9.37083 19.3638 9.636C19.3638 9.90116 19.2585 10.1555 19.071 10.343L18.364 11.05C18.1754 11.2322 17.9228 11.333 17.6606 11.3307C17.3984 11.3284 17.1476 11.2232 16.9622 11.0378C16.7768 10.8524 16.6716 10.6016 16.6693 10.3394C16.667 10.0772 16.7678 9.8246 16.95 9.636L17.657 8.929C17.8445 8.74153 18.0988 8.63621 18.364 8.63621C18.6292 8.63621 18.8835 8.74153 19.071 8.929ZM12 1.879C12.2652 1.879 12.5196 1.98435 12.7071 2.17189C12.8946 2.35943 13 2.61378 13 2.879V5.586L13.414 5.171C13.6016 4.98349 13.8561 4.8782 14.1214 4.8783C14.2527 4.87834 14.3828 4.90426 14.5041 4.95457C14.6254 5.00487 14.7357 5.07859 14.8285 5.1715C14.9213 5.26441 14.995 5.3747 15.0452 5.49606C15.0954 5.61743 15.1212 5.7475 15.1212 5.87885C15.1212 6.0102 15.0952 6.14025 15.0449 6.26159C14.9946 6.38292 14.9209 6.49315 14.828 6.586L12.708 8.707C12.6151 8.79997 12.5048 8.87373 12.3834 8.92406C12.262 8.97438 12.1319 9.00029 12.0005 9.00029C11.8691 9.00029 11.739 8.97438 11.6176 8.92406C11.4962 8.87373 11.3859 8.79997 11.293 8.707L9.172 6.586C8.98436 6.39849 8.87889 6.14412 8.8788 5.87885C8.8787 5.61358 8.98399 5.35914 9.1715 5.1715C9.35901 4.98386 9.61338 4.87839 9.87865 4.8783C10.1439 4.8782 10.3984 4.98349 10.586 5.171L11 5.586V2.88C11 2.61478 11.1054 2.36043 11.2929 2.17289C11.4804 1.98535 11.7348 1.88 12 1.88V1.879Z" fill="#FFD233"/>
</g>
<defs>
<clipPath id="clip0_158_1457">
<rect width="24" height="24" fill="white"/>
</clipPath>
</defs>
</svg>
