<svg width="23" height="23" viewBox="0 0 23 23" fill="none" xmlns="http://www.w3.org/2000/svg">
<path d="M8.62787 5.75005C8.62787 4.98832 8.93047 4.25778 9.4691 3.71916C10.0077 3.18053 10.7383 2.87793 11.5 2.87793C12.2617 2.87793 12.9923 3.18053 13.5309 3.71916C14.0695 4.25778 14.3721 4.98832 14.3721 5.75005C14.3721 6.51179 14.0695 7.24233 13.5309 7.78095C12.9923 8.31958 12.2617 8.62218 11.5 8.62218C10.7383 8.62218 10.0077 8.31958 9.4691 7.78095C8.93047 7.24233 8.62787 6.51179 8.62787 5.75005ZM11.5 4.31543C11.3116 4.31543 11.125 4.35254 10.951 4.42463C10.7769 4.49673 10.6188 4.6024 10.4856 4.73562C10.3523 4.86884 10.2467 5.02699 10.1746 5.20105C10.1025 5.3751 10.0654 5.56166 10.0654 5.75005C10.0654 5.93845 10.1025 6.125 10.1746 6.29906C10.2467 6.47312 10.3523 6.63127 10.4856 6.76449C10.6188 6.89771 10.7769 7.00338 10.951 7.07548C11.125 7.14757 11.3116 7.18468 11.5 7.18468C11.8805 7.18468 12.2454 7.03353 12.5144 6.76449C12.7835 6.49544 12.9346 6.13054 12.9346 5.75005C12.9346 5.36957 12.7835 5.00467 12.5144 4.73562C12.2454 4.46658 11.8805 4.31543 11.5 4.31543ZM15.8125 6.4688C15.8125 6.18564 15.8683 5.90525 15.9766 5.64364C16.085 5.38204 16.2438 5.14433 16.4441 4.94411C16.6443 4.74388 16.882 4.58505 17.1436 4.47669C17.4052 4.36833 17.6856 4.31255 17.9688 4.31255C18.2519 4.31255 18.5323 4.36833 18.7939 4.47669C19.0555 4.58505 19.2932 4.74388 19.4935 4.94411C19.6937 5.14433 19.8525 5.38204 19.9609 5.64364C20.0692 5.90525 20.125 6.18564 20.125 6.4688C20.125 7.04068 19.8978 7.58913 19.4935 7.9935C19.0891 8.39788 18.5406 8.62505 17.9688 8.62505C17.3969 8.62505 16.8484 8.39788 16.4441 7.9935C16.0397 7.58913 15.8125 7.04068 15.8125 6.4688ZM17.9688 5.75005C17.7781 5.75005 17.5953 5.82578 17.4605 5.96057C17.3257 6.09536 17.25 6.27818 17.25 6.4688C17.25 6.65943 17.3257 6.84225 17.4605 6.97704C17.5953 7.11183 17.7781 7.18755 17.9688 7.18755C18.1594 7.18755 18.3422 7.11183 18.477 6.97704C18.6118 6.84225 18.6875 6.65943 18.6875 6.4688C18.6875 6.27818 18.6118 6.09536 18.477 5.96057C18.3422 5.82578 18.1594 5.75005 17.9688 5.75005ZM5.03125 4.31255C4.45938 4.31255 3.91093 4.53973 3.50655 4.94411C3.10218 5.34848 2.875 5.89693 2.875 6.4688C2.875 7.04068 3.10218 7.58913 3.50655 7.9935C3.91093 8.39788 4.45938 8.62505 5.03125 8.62505C5.60312 8.62505 6.15157 8.39788 6.55595 7.9935C6.96032 7.58913 7.1875 7.04068 7.1875 6.4688C7.1875 5.89693 6.96032 5.34848 6.55595 4.94411C6.15157 4.53973 5.60312 4.31255 5.03125 4.31255ZM4.3125 6.4688C4.3125 6.27818 4.38823 6.09536 4.52302 5.96057C4.65781 5.82578 4.84063 5.75005 5.03125 5.75005C5.22187 5.75005 5.40469 5.82578 5.53948 5.96057C5.67427 6.09536 5.75 6.27818 5.75 6.4688C5.75 6.65943 5.67427 6.84225 5.53948 6.97704C5.40469 7.11183 5.22187 7.18755 5.03125 7.18755C4.84063 7.18755 4.65781 7.11183 4.52302 6.97704C4.38823 6.84225 4.3125 6.65943 4.3125 6.4688ZM6.13525 10.0626C5.88226 10.4993 5.74934 10.9953 5.75 11.5001H2.875V15.0938C2.87488 15.4514 2.96369 15.8033 3.13342 16.118C3.30314 16.4328 3.54847 16.7003 3.84731 16.8966C4.14615 17.093 4.48912 17.2119 4.84535 17.2427C5.20157 17.2736 5.55988 17.2153 5.888 17.0732C5.99438 17.5491 6.16113 18.0033 6.37675 18.4274C5.83117 18.6477 5.23984 18.7306 4.65471 18.669C4.06957 18.6073 3.50852 18.4029 3.02082 18.0738C2.53313 17.7446 2.13371 17.3008 1.85764 16.7812C1.58157 16.2616 1.4373 15.6822 1.4375 15.0938V11.5001C1.4375 11.1188 1.58895 10.7532 1.85853 10.4836C2.12812 10.214 2.49375 10.0626 2.875 10.0626H6.13525ZM16.6233 18.4274C17.1688 18.6477 17.7602 18.7306 18.3453 18.669C18.9304 18.6073 19.4915 18.4029 19.9792 18.0738C20.4669 17.7446 20.8663 17.3008 21.1424 16.7812C21.4184 16.2616 21.5627 15.6822 21.5625 15.0938V11.5001C21.5625 11.1188 21.411 10.7532 21.1415 10.4836C20.8719 10.214 20.5062 10.0626 20.125 10.0626H16.8648C17.1091 10.4852 17.25 10.9754 17.25 11.5001H20.125V15.0938C20.1251 15.4514 20.0363 15.8033 19.8666 16.118C19.6969 16.4328 19.4515 16.7003 19.1527 16.8966C18.8539 17.093 18.5109 17.2119 18.1547 17.2427C17.7984 17.2736 17.4401 17.2153 17.112 17.0732C17.0042 17.5491 16.8389 18.0033 16.6233 18.4274ZM8.625 10.0611C8.24375 10.0611 7.87812 10.2126 7.60853 10.4822C7.33895 10.7517 7.1875 11.1174 7.1875 11.4986V15.8126C7.1875 16.9563 7.64185 18.0532 8.4506 18.862C9.25935 19.6707 10.3563 20.1251 11.5 20.1251C12.6437 20.1251 13.7406 19.6707 14.5494 18.862C15.3581 18.0532 15.8125 16.9563 15.8125 15.8126V11.5001C15.8125 11.1188 15.661 10.7532 15.3915 10.4836C15.1219 10.214 14.7562 10.0626 14.375 10.0626L8.625 10.0611ZM8.625 11.4986H14.375V15.8126C14.375 16.5751 14.0721 17.3063 13.5329 17.8455C12.9938 18.3847 12.2625 18.6876 11.5 18.6876C10.7375 18.6876 10.0062 18.3847 9.46707 17.8455C8.9279 17.3063 8.625 16.5751 8.625 15.8126V11.4986Z" fill="white"/>
</svg>
